<?xml version="1.0" encoding="UTF-8"?>
<svg id="Ebene_1" data-name="Ebene 1" xmlns="http://www.w3.org/2000/svg" xmlns:xlink="http://www.w3.org/1999/xlink" viewBox="0 0 256 256">
  <defs>
    <style>
      .cls-1 {
        stroke: #ededed;
        stroke-miterlimit: 10;
        stroke-width: .43px;
      }

      .cls-1, .cls-2 {
        fill: #ededed;
      }

      .cls-3 {
        filter: url(#drop-shadow-1);
      }

      .cls-4 {
        fill: #e40634;
      }
    </style>
    <filter id="drop-shadow-1" x="10.25" y="17.5" width="260.16" height="239.28" filterUnits="userSpaceOnUse">
      <feOffset dx="8" dy="8"/>
      <feGaussianBlur result="blur" stdDeviation=""/>
      <feFlood flood-color="#472426" flood-opacity=".7"/>
      <feComposite in2="blur" operator="in"/>
      <feComposite in="SourceGraphic"/>
    </filter>
  </defs>
  <rect class="cls-4" x="-29.13" y="-11.1" width="314.27" height="291.72"/>
  <g class="cls-3">
    <path class="cls-1" d="M223.89,194.15c-.1-.06-8.24-6.92-17.24-12.56v-46.5h3.58c9.2,0,16.66-7.46,16.66-16.66V41.38c0-9.2-7.46-16.66-16.66-16.66h-7.16c-9.2,0-16.66,7.46-16.66,16.66v132.85h-110.79c-11.3,0-34.81,19.81-34.97,19.92-6.95,4.51-20.16-25.98-20.16-17.08v1.5c.36,37.27,19.95,48.79,33.92,48.79h44.66c14.22,0,26.68-14.52,30.38-28.25l.31,1.01c4.05,13.23,16.26,27.25,30.09,27.25h50.29c13.97,0,33.92-11.53,33.92-48.79v-1.5c0-8.9-13.22,21.59-20.16,17.08Z"/>
    <g>
      <path class="cls-2" d="M134.24,25.08H62.27c-18.09,0-32.81,14.72-32.81,32.81v61.65c0,18.09,14.72,32.81,32.81,32.81h71.98c18.09,0,32.81-14.72,32.81-32.81v-61.65c0-18.09-14.72-32.81-32.81-32.81ZM98.25,142.44c-29.63,0-53.73-24.1-53.73-53.73s24.1-53.73,53.73-53.73,53.73,24.1,53.73,53.73-24.1,53.73-53.73,53.73Z"/>
      <path class="cls-2" d="M98.25,51.11c-20.73,0-37.6,16.87-37.6,37.6s16.87,37.59,37.6,37.59,37.6-16.87,37.6-37.59-16.87-37.6-37.6-37.6ZM86.11,88.71h-9.46c0-11.91,9.69-21.6,21.6-21.6v9.46c-6.7,0-12.14,5.45-12.14,12.14ZM98.25,110.31v-9.46c6.7,0,12.14-5.45,12.14-12.14h9.46c0,11.91-9.69,21.6-21.6,21.6Z"/>
    </g>
  </g>
</svg>