<?xml version="1.0" encoding="UTF-8"?>
<svg id="Ebene_1" data-name="Ebene 1" xmlns="http://www.w3.org/2000/svg" viewBox="0 0 256 256">
  <defs>
    <style>
      .cls-1 {
        stroke-width: .35px;
      }

      .cls-1, .cls-2, .cls-3, .cls-4, .cls-5, .cls-6 {
        fill: #1d1d1b;
        stroke: #1d1d1b;
        stroke-miterlimit: 10;
      }

      .cls-2 {
        stroke-width: .53px;
      }

      .cls-3 {
        stroke-width: .43px;
      }

      .cls-7 {
        fill: #ededed;
      }

      .cls-4 {
        stroke-width: .25px;
      }

      .cls-5 {
        stroke-width: .67px;
      }

      .cls-6 {
        stroke-width: .3px;
      }
    </style>
  </defs>
  <rect class="cls-5" x="29.11" y="24.73" width="148.18" height="110.36" rx="31.87" ry="31.87"/>
  <rect class="cls-6" x="55.29" y="117.51" width="95.82" height="34.47" rx="14.33" ry="14.33"/>
  <rect class="cls-1" x="186.42" y="24.73" width="40.47" height="110.36" rx="16.66" ry="16.66"/>
  <rect class="cls-4" x="186.42" y="91.49" width="20.24" height="110.36" rx="10.12" ry="10.12"/>
  <rect class="cls-2" x="101.95" y="117.25" width="52.1" height="197.78" rx="25.3" ry="25.3" transform="translate(344.14 88.14) rotate(90)"/>
  <rect class="cls-3" x="104.82" y="124.56" width="46.35" height="145.71" rx="20.48" ry="20.48" transform="translate(325.41 69.41) rotate(90)"/>
  <path class="cls-7" d="M49.34,44.71h36.03v9.82l-17.48,14.05,17.48-.02v9.93h-36.06v-9.01l18.36-14.73h-18.33v-10.04Z"/>
  <path class="cls-7" d="M99.9,58.96l28.81,5.86-1.6,7.85-16.26,8.39,13.97,2.82-1.61,7.94-28.82-5.86,1.46-7.2,17.07-8.79-14.66-2.98,1.63-8.03Z"/>
  <path class="cls-7" d="M136.06,83.81l20.15,8.83-2.41,5.49-13.22,3.58,9.78,4.27-2.43,5.55-20.16-8.84,2.21-5.04,13.88-3.74-10.25-4.49,2.46-5.62Z"/>
</svg>